<svg width="1073" height="289" viewBox="0 0 1073 289" fill="none" xmlns="http://www.w3.org/2000/svg">
<path d="M368.856 114.885C358.448 114.885 349.043 112.637 340.64 108.141C332.333 103.645 325.792 97.4754 321.018 89.6314C316.339 81.6917 314 72.7954 314 62.9426C314 53.0898 316.339 44.2414 321.018 36.3973C325.792 28.4577 332.333 22.2399 340.64 17.7439C349.043 13.248 358.448 11 368.856 11C379.264 11 388.621 13.248 396.928 17.7439C405.236 22.2399 411.776 28.4577 416.551 36.3973C421.325 44.2414 423.712 53.0898 423.712 62.9426C423.712 72.7954 421.325 81.6917 416.551 89.6314C411.776 97.4754 405.236 103.645 396.928 108.141C388.621 112.637 379.264 114.885 368.856 114.885ZM368.856 95.0839C374.776 95.0839 380.123 93.7447 384.897 91.0662C389.672 88.2921 393.396 84.4658 396.069 79.5872C398.838 74.7086 400.223 69.1604 400.223 62.9426C400.223 56.7248 398.838 51.1766 396.069 46.298C393.396 41.4194 389.672 37.6409 384.897 34.9625C380.123 32.1884 374.776 30.8013 368.856 30.8013C362.936 30.8013 357.589 32.1884 352.815 34.9625C348.04 37.6409 344.269 41.4194 341.5 46.298C338.826 51.1766 337.489 56.7248 337.489 62.9426C337.489 69.1604 338.826 74.7086 341.5 79.5872C344.269 84.4658 348.04 88.2921 352.815 91.0662C357.589 93.7447 362.936 95.0839 368.856 95.0839Z" fill="#0B082D"/>
<path d="M482.256 34.819C489.417 34.819 495.91 36.493 501.735 39.8411C507.655 43.0935 512.286 47.7329 515.628 53.7594C518.97 59.6902 520.641 66.6255 520.641 74.5651C520.641 82.5048 518.97 89.4879 515.628 95.5144C512.286 101.445 507.655 106.085 501.735 109.433C495.91 112.685 489.417 114.311 482.256 114.311C472.421 114.311 464.687 111.202 459.053 104.985V141L436.71 135.091V35.9669H458.051V44.8631C463.589 38.167 471.657 34.819 482.256 34.819ZM478.389 95.9448C484.118 95.9448 488.797 94.0316 492.425 90.2053C496.149 86.2833 498.011 81.0699 498.011 74.5651C498.011 68.0603 496.149 62.8948 492.425 59.0684C488.797 55.1464 484.118 53.1854 478.389 53.1854C472.66 53.1854 467.933 55.1464 464.209 59.0684C460.581 62.8948 458.767 68.0603 458.767 74.5651C458.767 81.0699 460.581 86.2833 464.209 90.2053C467.933 94.0316 472.66 95.9448 478.389 95.9448Z" fill="#0B082D"/>
<path d="M608.214 74.8521C608.214 75.1391 608.071 77.1479 607.784 80.8786H549.491C550.541 85.6615 553.024 89.44 556.939 92.2141C560.854 94.9882 565.723 96.3753 571.548 96.3753C575.558 96.3753 579.091 95.8013 582.147 94.6534C585.298 93.4099 588.21 91.4967 590.884 88.9139L602.772 101.828C595.515 110.15 584.916 114.311 570.975 114.311C562.286 114.311 554.599 112.637 547.916 109.289C541.232 105.845 536.075 101.11 532.447 95.0839C528.819 89.0574 527.004 82.2178 527.004 74.5651C527.004 67.0081 528.771 60.2163 532.304 54.1898C535.932 48.0677 540.85 43.3326 547.056 39.9845C553.358 36.5408 560.376 34.819 568.111 34.819C575.654 34.819 582.481 36.4452 588.592 39.6976C594.703 42.95 599.477 47.6372 602.915 53.7594C606.448 59.7859 608.214 66.8168 608.214 74.8521ZM568.254 51.7505C563.193 51.7505 558.944 53.1854 555.507 56.0552C552.069 58.9249 549.968 62.8469 549.205 67.8212H587.16C586.396 62.9426 584.295 59.0684 580.858 56.1987C577.42 53.2333 573.219 51.7505 568.254 51.7505Z" fill="#0B082D"/>
<path d="M667.06 34.819C676.609 34.819 684.295 37.6887 690.12 43.4283C696.04 49.1678 699 57.6814 699 68.9691V113.163H676.657V72.4128C676.657 66.2906 675.32 61.7469 672.646 58.7815C669.973 55.7204 666.105 54.1898 661.045 54.1898C655.411 54.1898 650.923 55.9595 647.581 59.4989C644.239 62.9426 642.568 68.1082 642.568 74.9956V113.163H620.225V35.9669H641.566V45.0066C644.526 41.7542 648.202 39.2671 652.594 37.5453C656.987 35.7277 661.809 34.819 667.06 34.819Z" fill="#0B082D"/>
<path d="M398.25 198.115C404.028 200.042 408.554 203.287 411.829 207.851C415.103 212.313 416.74 217.839 416.74 224.431C416.74 233.761 413.273 240.962 406.339 246.032C399.502 251.002 389.486 253.486 376.293 253.486H324V147H373.404C385.731 147 395.168 149.484 401.717 154.454C408.362 159.423 411.684 166.167 411.684 174.686C411.684 179.858 410.481 184.473 408.073 188.53C405.762 192.586 402.487 195.782 398.25 198.115ZM347.257 165.559V190.659H370.515C376.293 190.659 380.675 189.596 383.66 187.466C386.645 185.336 388.138 182.192 388.138 178.034C388.138 173.875 386.645 170.782 383.66 168.754C380.675 166.624 376.293 165.559 370.515 165.559H347.257ZM374.559 234.927C380.723 234.927 385.345 233.864 388.427 231.734C391.605 229.604 393.194 226.308 393.194 221.845C393.194 213.022 386.982 208.611 374.559 208.611H347.257V234.927H374.559Z" fill="#0B082D"/>
<path d="M466.96 254.705C458.774 254.705 451.407 252.93 444.858 249.38C438.406 245.729 433.35 240.709 429.69 234.32C426.031 227.931 424.201 220.677 424.201 212.564C424.201 204.451 426.031 197.201 429.69 190.812C433.35 184.422 438.406 179.454 444.858 175.904C451.407 172.253 458.774 170.427 466.96 170.427C475.146 170.427 482.465 172.253 488.917 175.904C495.369 179.454 500.425 184.422 504.085 190.812C507.744 197.201 509.574 204.451 509.574 212.564C509.574 220.677 507.744 227.931 504.085 234.32C500.425 240.709 495.369 245.729 488.917 249.38C482.465 252.93 475.146 254.705 466.96 254.705ZM466.96 235.233C472.738 235.233 477.457 233.203 481.116 229.146C484.872 224.988 486.75 219.46 486.75 212.564C486.75 205.668 484.872 200.193 481.116 196.136C477.457 191.978 472.738 189.899 466.96 189.899C461.182 189.899 456.415 191.978 452.659 196.136C448.903 200.193 447.025 205.668 447.025 212.564C447.025 219.46 448.903 224.988 452.659 229.146C456.415 233.203 461.182 235.233 466.96 235.233Z" fill="#0B082D"/>
<path d="M558.728 254.705C550.543 254.705 543.175 252.93 536.627 249.38C530.174 245.729 525.118 240.709 521.459 234.32C517.799 227.931 515.97 220.677 515.97 212.564C515.97 204.451 517.799 197.201 521.459 190.812C525.118 184.422 530.174 179.454 536.627 175.904C543.175 172.253 550.543 170.427 558.728 170.427C566.914 170.427 574.233 172.253 580.686 175.904C587.138 179.454 592.194 184.422 595.853 190.812C599.513 197.201 601.343 204.451 601.343 212.564C601.343 220.677 599.513 227.931 595.853 234.32C592.194 240.709 587.138 245.729 580.686 249.38C574.233 252.93 566.914 254.705 558.728 254.705ZM558.728 235.233C564.507 235.233 569.225 233.203 572.885 229.146C576.641 224.988 578.519 219.46 578.519 212.564C578.519 205.668 576.641 200.193 572.885 196.136C569.225 191.978 564.507 189.899 558.728 189.899C552.95 189.899 548.183 191.978 544.427 196.136C540.671 200.193 538.794 205.668 538.794 212.564C538.794 219.46 540.671 224.988 544.427 229.146C548.183 233.203 552.95 235.233 558.728 235.233Z" fill="#0B082D"/>
<path d="M663.642 249.531C661.427 251.255 658.683 252.573 655.408 253.486C652.23 254.297 648.86 254.705 645.296 254.705C636.051 254.705 628.877 252.218 623.773 247.249C618.765 242.279 616.261 234.979 616.261 225.344V191.725H604.271V173.469H616.261V147L638.796 153.541V173.469H658.153V191.725H638.796V225.038C638.796 228.487 639.615 231.174 641.252 233.101C642.985 234.927 645.393 235.84 648.474 235.84C652.038 235.84 655.071 234.826 657.575 232.798L663.642 249.531Z" fill="#0B082D"/>
<path d="M708.563 254.705C700.281 254.705 692.818 252.93 686.173 249.38C679.624 245.729 674.472 240.709 670.716 234.32C667.057 227.931 665.227 220.677 665.227 212.564C665.227 204.451 667.057 197.201 670.716 190.812C674.472 184.422 679.624 179.454 686.173 175.904C692.818 172.253 700.281 170.427 708.563 170.427C716.749 170.427 723.876 172.253 729.943 175.904C736.106 179.454 740.584 184.575 743.377 191.268L725.898 201.155C721.853 193.65 716.027 189.899 708.419 189.899C702.544 189.899 697.681 191.927 693.829 195.983C689.977 200.04 688.051 205.566 688.051 212.564C688.051 219.562 689.977 225.09 693.829 229.146C697.681 233.203 702.544 235.233 708.419 235.233C716.123 235.233 721.95 231.48 725.898 223.975L743.377 234.014C740.584 240.505 736.106 245.576 729.943 249.227C723.876 252.878 716.749 254.705 708.563 254.705Z" fill="#0B082D"/>
<path d="M784.81 170.427C796.848 170.427 806.093 173.469 812.545 179.554C818.997 185.537 822.224 194.615 822.224 206.785V253.486H801.133V243.296C796.896 250.902 788.999 254.705 777.443 254.705C771.472 254.705 766.271 253.639 761.841 251.51C757.508 249.38 754.185 246.437 751.874 242.685C749.563 238.932 748.407 234.675 748.407 229.908C748.407 222.302 751.104 216.317 756.497 211.957C761.986 207.596 770.412 205.416 781.776 205.416H799.689C799.689 200.243 798.196 196.289 795.21 193.55C792.225 190.711 787.747 189.29 781.776 189.29C777.635 189.29 773.542 190.001 769.497 191.421C765.549 192.739 762.178 194.564 759.386 196.896L751.296 180.316C755.533 177.172 760.589 174.737 766.464 173.013C772.435 171.289 778.55 170.427 784.81 170.427ZM783.076 238.731C786.928 238.731 790.347 237.818 793.333 235.993C796.318 234.066 798.437 231.275 799.689 227.624V219.259H784.232C774.987 219.259 770.364 222.453 770.364 228.843C770.364 231.885 771.472 234.32 773.687 236.146C775.998 237.87 779.128 238.731 783.076 238.731Z" fill="#0B082D"/>
<path d="M939.259 170.427C948.986 170.427 956.69 173.469 962.372 179.554C968.15 185.537 971.039 194.564 971.039 206.632V253.486H948.504V210.284C948.504 203.793 947.204 198.976 944.604 195.832C942.1 192.587 938.489 190.965 933.77 190.965C928.473 190.965 924.284 192.789 921.202 196.44C918.121 199.989 916.58 205.314 916.58 212.413V253.486H894.045V210.284C894.045 197.404 889.133 190.965 879.31 190.965C874.11 190.965 869.969 192.789 866.887 196.44C863.806 199.989 862.265 205.314 862.265 212.413V253.486H839.73V171.644H861.254V181.076C864.143 177.628 867.658 174.991 871.799 173.166C876.036 171.34 880.659 170.427 885.666 170.427C891.156 170.427 896.115 171.593 900.545 173.926C904.975 176.157 908.539 179.453 911.235 183.814C914.413 179.555 918.41 176.258 923.225 173.926C928.136 171.593 933.481 170.427 939.259 170.427Z" fill="#0B082D"/>
<path d="M1034.29 170.427C1041.51 170.427 1048.06 172.202 1053.93 175.751C1059.9 179.2 1064.57 184.119 1067.94 190.508C1071.31 196.796 1073 204.146 1073 212.564C1073 220.981 1071.31 228.385 1067.94 234.774C1064.57 241.062 1059.9 245.981 1053.93 249.531C1048.06 252.979 1041.51 254.705 1034.29 254.705C1024.37 254.705 1016.57 251.408 1010.88 244.816V289L988.349 283V171.644H1009.87V181.076C1015.46 173.977 1023.6 170.427 1034.29 170.427ZM1030.39 235.233C1036.16 235.233 1040.88 233.203 1044.54 229.146C1048.3 224.988 1050.18 219.46 1050.18 212.564C1050.18 205.668 1048.3 200.193 1044.54 196.136C1040.88 191.978 1036.16 189.899 1030.39 189.899C1024.61 189.899 1019.84 191.978 1016.08 196.136C1012.43 200.193 1010.6 205.668 1010.6 212.564C1010.6 219.46 1012.43 224.988 1016.08 229.146C1019.84 233.203 1024.61 235.233 1030.39 235.233Z" fill="#0B082D"/>
<circle cx="88" cy="88" r="88" fill="#0BF082"/>
<path fill-rule="evenodd" clip-rule="evenodd" d="M182.79 88.0341H88.2976V168.318V180.361V260.645H182.79C208.285 260.645 228.953 239.977 228.953 214.481C228.953 197.284 219.549 182.282 205.603 174.339C219.549 166.397 228.953 151.395 228.953 134.198C228.953 108.702 208.285 88.0341 182.79 88.0341Z" fill="#047AF3"/>
<path fill-rule="evenodd" clip-rule="evenodd" d="M176.435 88.0341C176.434 136.652 136.977 176.065 88.3037 176.065C88.3017 176.065 88.2996 176.065 88.2976 176.065V88.0341H176.435Z" fill="#0DC0CB"/>
</svg>
